<?xml version="1.0" encoding="UTF-8" standalone="no"?>
<svg
   xmlns:dc="http://purl.org/dc/elements/1.1/"
   xmlns:cc="http://creativecommons.org/ns#"
   xmlns:rdf="http://www.w3.org/1999/02/22-rdf-syntax-ns#"
   xmlns:svg="http://www.w3.org/2000/svg"
   xmlns="http://www.w3.org/2000/svg"
   viewBox="0 0 487.89334 122.34667"
   height="122.34667"
   width="487.89334"
   xml:space="preserve"
   id="svg2"
   version="1.1"><metadata
     id="metadata8"><rdf:RDF><cc:Work
         rdf:about=""><dc:format>image/svg+xml</dc:format><dc:type
           rdf:resource="http://purl.org/dc/dcmitype/StillImage" /></cc:Work></rdf:RDF></metadata><defs
     id="defs6" /><g
     transform="matrix(1.3333333,0,0,-1.3333333,0,122.34667)"
     id="g10"><g
       transform="scale(0.1)"
       id="g12"><path
         id="path14"
         style="fill:#67c649;fill-opacity:1;fill-rule:nonzero;stroke:none"
         d="m 3525.22,638.547 c 0,-135.547 -109.9,-245.438 -245.44,-245.438 -135.56,0 -245.44,109.891 -245.44,245.438 0,135.558 109.88,245.441 245.44,245.441 135.54,0 245.44,-109.883 245.44,-245.441" /><path
         id="path16"
         style="fill:#2a414f;fill-opacity:1;fill-rule:nonzero;stroke:none"
         d="m 1235.01,372.688 c -33.2,87.902 -92.97,127.863 -175.02,121.621 -70.154,-5.34 -123.494,-50.731 -139.752,-121.621 103.642,0 206.572,0 314.772,0 z m 127.55,-96.356 c -150.09,0 -296.93,0 -448.154,0 10.254,-69.562 52.258,-102.402 105.324,-122.648 65.44,-24.969 123.57,-5.918 199.45,60.05 40.82,0.067 81.62,0.067 123.33,0.067 C 1296.02,77.0352 1138.67,2.70703 992.043,45.8438 841.117,90.2461 749.641,239.047 785.473,381.867 c 38.562,153.711 196.621,252.031 351.327,218.555 150.91,-32.656 252.6,-172.43 225.76,-324.09" /><path
         id="path18"
         style="fill:#2a414f;fill-opacity:1;fill-rule:nonzero;stroke:none"
         d="m 1556.94,373.461 c 105.04,0 208.96,0 314.17,0 -28.07,82.988 -84.65,123.574 -164.79,121.082 -73.68,-2.285 -128.2,-45.313 -149.38,-121.082 z m 441.93,-95.852 c -146.19,0 -294.95,0 -445.5,0 34.54,-147.234 176.22,-172.812 303.79,-64.539 41.74,0 82.23,0 123.87,0 C 1926.69,69.4453 1765.91,-0.808594 1615.05,50.168 c -147.68,49.902 -229.94,202.559 -186.48,346.094 45.54,150.429 201.92,237.609 354.06,201.914 139.14,-32.645 251.66,-178.516 216.24,-320.567" /><path
         id="path20"
         style="fill:#2a414f;fill-opacity:1;fill-rule:nonzero;stroke:none"
         d="m 738.605,597.805 c 0,-30.731 0,-61.934 0,-92.637 -141.16,-23.523 -142.996,-75.02 -143.164,-210.242 -0.097,-78.078 -0.019,-156.153 -0.019,-239.3752 -40.664,0 -76.219,0 -114.238,0 0,116.6292 0.156,238.3472 3.574,353.1442 3.652,122.578 135.996,198.926 253.847,189.11" /><path
         id="path22"
         style="fill:#2a414f;fill-opacity:1;fill-rule:nonzero;stroke:none"
         d="m 430.551,489.438 c 0,32.742 0,62.82 0,98.074 H 324.184 v 6.984 l 0.32,18.848 c 8.059,65.879 60.215,78.855 104.953,80.379 0,31.601 0,60 0,89.882 -132.617,6.29 -213.75,-57.546 -227.727,-169.539 -0.886,-7.168 0,-28.878 0,-28.878 h -60.593 c -2.383,-0.43 -4.778,-0.86 -7.149,-1.29 0,-33.457 0,-62.351 0,-94.46 h 67.742 v -13.379 l 0.176,-0.032 c 0,-141.875 0,-281.347 0,-421.6793 43.645,0 79.367,0 122.637,0 0,84.4923 0,167.6173 0,250.5273 h -0.047 v 184.563 h 106.055" /><path
         id="path24"
         style="fill:#2a414f;fill-opacity:1;fill-rule:nonzero;stroke:none"
         d="M 2198.62,54.2617 H 2086.19 V 764.973 h 112.43 V 54.2617" /><path
         id="path26"
         style="fill:#2a414f;fill-opacity:1;fill-rule:nonzero;stroke:none"
         d="m 2747.24,318.715 c -1.63,-94.817 -82.6,-173.574 -177.63,-172.266 -92.12,1.258 -165.74,74.512 -169.48,167.098 -0.08,2.316 -0.26,4.601 -0.25,6.945 -0.01,2.344 0.17,4.629 0.25,6.942 3.74,92.589 77.36,165.839 169.48,167.101 95.03,1.309 176,-77.453 177.63,-172.265 l 0.08,-1.778 z m 110.88,268.562 c -34.14,0 -67.52,0 -105.25,0 -2.12,-11.621 -4.34,-23.847 -6.72,-36.836 -36.85,26.555 -80.28,44.895 -126.52,52.004 -13.91,2.137 -27.8,3.047 -41.61,3.25 -1.7,0.059 -3.4,0.11 -5.1,0.137 -2.65,-0.008 -5.29,-0.047 -7.94,-0.125 -67.54,-0.742 -135.13,-25.246 -181.13,-63.41 -31.47,-26.113 -56.49,-57.051 -74.51,-90.801 -1.65,-3.047 -3.06,-6.238 -4.6,-9.363 -1.83,-3.742 -3.71,-7.453 -5.37,-11.25 -0.41,-0.949 -0.92,-1.828 -1.32,-2.774 -1.56,-3.683 -2.79,-7.414 -4.18,-11.125 -0.88,-2.343 -1.84,-4.675 -2.65,-7.039 -1.71,-4.941 -3.15,-9.902 -4.57,-14.875 -0.63,-2.234 -1.32,-4.461 -1.9,-6.718 -1.27,-4.95 -2.31,-9.911 -3.29,-14.883 -0.48,-2.43 -1.01,-4.844 -1.42,-7.285 -0.8,-4.676 -1.39,-9.344 -1.93,-14.024 -0.34,-2.89 -0.71,-5.769 -0.96,-8.672 -0.35,-4.16 -0.54,-8.308 -0.69,-12.468 -0.14,-3.508 -0.28,-7.012 -0.29,-10.528 0.01,-3.515 0.15,-7.023 0.29,-10.527 0.15,-4.16 0.34,-8.313 0.69,-12.473 0.25,-2.898 0.62,-5.781 0.96,-8.66 0.54,-4.687 1.13,-9.355 1.93,-14.035 0.41,-2.43 0.94,-4.852 1.42,-7.285 0.98,-4.969 2.03,-9.93 3.29,-14.883 0.58,-2.254 1.27,-4.473 1.9,-6.707 1.41,-4.981 2.86,-9.942 4.57,-14.883 0.81,-2.363 1.76,-4.687 2.64,-7.023 1.4,-3.719 2.63,-7.45 4.19,-11.141 0.4,-0.949 0.91,-1.828 1.32,-2.773 1.65,-3.789 3.53,-7.493 5.36,-11.211 1.53,-3.137 2.96,-6.348 4.61,-9.414 18.02,-33.743 43.04,-64.68 74.51,-90.7934 46,-38.1641 113.59,-62.6641 181.13,-63.4063 2.65,-0.0781 5.29,-0.1171 7.94,-0.1289 1.7,0.0313 3.4,0.0782 5.1,0.1368 13.81,0.207 27.7,1.1132 41.61,3.2617 46.24,7.1015 89.67,25.4414 126.52,51.9922 2.38,-12.9883 4.6,-25.2149 6.72,-36.8321 37.73,0 71.11,0 105.25,0 v 533.57" /></g></g></svg>