<svg width="131" height="37" viewBox="0 0 131 37" fill="none" xmlns="http://www.w3.org/2000/svg">
<g clip-path="url(#clip0_3530_34549)">
<rect width="130.38" height="36.28" fill="black" fill-opacity="0.1"/>
<path d="M10.88 3.28998H11.61C12.95 3.28998 13.87 4.73998 14.43 6.66998C14.973 8.70196 15.2453 10.7967 15.24 12.9C15.1636 16.9612 14.5585 20.9951 13.44 24.9C12.25 29.11 10.49 32.56 8.16 32.9L7.26 33.03C5.2 33.35 4.13 29.45 4.13 26.55C4.08064 22.1897 4.62565 17.8431 5.75 13.63C6.28 11.63 8.67 3.31999 10.85 3.29999L10.88 3.28998ZM127.3 36.19C128.074 35.8045 128.718 35.202 129.155 34.4561C129.592 33.7103 129.802 32.8533 129.76 31.99C106.25 28.56 85.19 29.93 62.24 32.58C53.11 33.63 46.02 33.87 42.02 30.41C40.84 29.41 40.45 27.52 40.28 25.34V23.67C40.8728 23.8546 41.4892 23.9523 42.11 23.96C43.36 23.87 44.69 22.42 45.68 20.63C46.6498 18.9724 47.2278 17.1151 47.37 15.2V14.2C47.37 12.47 46.01 9.93998 44.65 9.97998C44.0131 10.1848 43.4454 10.5621 43.01 11.0699C42.6645 10.9426 42.2981 10.8816 41.93 10.89H41.56C39.12 10.97 37.09 16.44 36.5 18.95C36.24 20.12 35.9 24.49 35.76 24.95C35.29 26.26 34.31 28.44 32.84 28.61C32.6897 28.2035 32.5726 27.7854 32.49 27.36C32.592 25.0488 32.927 22.7538 33.49 20.5099C33.72 19.5099 35.05 14.9599 35.05 14.5699C35.05 13.7799 31.57 11.08 30.5 11.12C29.43 11.16 28.19 13.17 27.23 15.37C26.27 17.57 25.44 20.01 24.88 20.84C25.4 18.5866 25.9267 16.3433 26.46 14.11C25.5394 13.243 24.3245 12.7571 23.06 12.75H22.34C21.96 14.75 21.34 16.83 20.94 19.41C20.5679 21.8565 20.3641 24.3256 20.33 26.8V27.25C20.33 29.84 22.19 31.73 24.33 31.47C24.66 29.74 24.71 28.12 25.09 26.35C25.4 24.91 25.89 23.3499 26.33 22.0099C26.86 20.3899 28.78 15.01 30.14 14.77C30.014 16.422 29.7361 18.0589 29.31 19.66C28.8305 21.5851 28.5622 23.5567 28.51 25.54V26.63C28.51 29.63 30.35 31.86 32.86 31.58H33.23C34.85 31.41 35.88 28.78 36.69 27.58C38.36 35.9 47.31 36.26 54.25 36.28C67.73 36.28 81.05 34.28 94.6 34.43C105.54 34.58 116.51 35.38 127.32 36.21L127.3 36.19ZM52.64 23.84C53.75 24.66 54.05 25.68 55.91 26.02C55.66 26.56 54.91 27.89 54.28 27.94H54.13C53.4 28 52.32 26.1699 52.32 25.2599V25.06C52.3223 24.6257 52.4433 24.2003 52.67 23.83L52.64 23.84ZM53.55 20.96C54.3036 19.5677 54.9167 18.1038 55.38 16.59C56.03 14.88 56.81 13.3 57.91 12.99C58.1549 13.3344 58.2844 13.7474 58.28 14.17V15.35C58.2598 16.8307 58.0855 18.3053 57.76 19.75C57.47 21.13 57.11 22.46 56.83 23.75C55.5 23.51 54.23 22.04 53.55 20.96ZM40.47 21.96C40.5255 20.2989 40.906 18.6647 41.59 17.15C42.102 15.8331 42.8974 14.645 43.92 13.67C44.1328 14.2619 44.2575 14.8818 44.29 15.5099C44.29 17.8799 43.03 21.79 41.2 21.91H40.47V21.96ZM99.67 23.02C99.7576 20.6982 100.137 18.3968 100.8 16.17C101.52 13.76 102.57 11.75 103.8 11.74C104.45 11.74 105.08 13.32 105.08 14.12C105.08 15.12 103.55 19.12 103.15 20.12C102.59 21.54 101.64 24.82 99.99 24.89C99.7872 24.2953 99.6629 23.6768 99.62 23.05L99.67 23.02ZM68.07 24.11C68.1502 21.6629 68.5297 19.2349 69.2 16.88C69.93 14.33 70.99 12.21 72.25 12.18C72.9 12.18 73.51 13.82 73.51 14.65C73.51 15.65 72 19.86 71.59 20.94C71.03 22.44 70.06 25.94 68.42 26.03C68.2232 25.4063 68.0991 24.7621 68.05 24.11H68.07ZM53.18 16.93C53.3079 15.5817 53.5352 14.2448 53.86 12.93C54.2 11.36 54.6 9.77999 54.79 8.92999C54.98 8.07999 56.79 1.57 56.79 1.56C56.79 0.909998 54.25 0.159973 53.33 0.159973H52.6C52.27 1.54997 51.53 3.15997 51.09 5.15997C50.65 7.15997 50.37 8.73996 49.98 10.65C49.71 12 49.37 14.26 49.09 16.55C48.56 20.99 47.25 31.26 54.42 30.65H54.6C56.92 30.46 59.6 27.77 60.05 25.89C60.0737 25.9689 60.1038 26.0459 60.14 26.12L63.92 24.03C64.73 25.8 64.86 29.11 68.03 28.91H68.58C71.2 28.75 71.77 24.15 72.58 23.49C72.5495 24.0233 72.6321 24.5569 72.8224 25.056C73.0126 25.5551 73.3062 26.0084 73.6839 26.3861C74.0616 26.7638 74.5148 27.0574 75.0139 27.2476C75.513 27.4379 76.0467 27.5205 76.58 27.49H76.95C78.85 27.39 79.36 25 80.39 24.67C80.68 25.93 82.32 26.87 83.85 26.8C84.18 25.35 84.23 23.97 84.61 22.48C84.954 21.2441 85.368 20.0288 85.85 18.84C86.38 17.47 88.3 12.91 89.67 12.77C89.5436 14.1907 89.2585 15.5927 88.82 16.95C88.3363 18.5746 88.0673 20.2555 88.02 21.95V22.88C87.9853 23.4704 88.0733 24.0615 88.2785 24.6162C88.4838 25.1709 88.8017 25.677 89.2123 26.1026C89.6229 26.5282 90.1173 26.8642 90.6642 27.0892C91.2111 27.3142 91.7987 27.4234 92.39 27.41H92.74C94.43 27.41 95.18 25.19 96.01 24.54C96.2305 25.3604 96.698 26.0932 97.3492 26.6388C98.0004 27.1844 98.8036 27.5165 99.65 27.59H100.2C102.81 27.53 103.38 23.16 104.2 22.59C104.179 23.1209 104.268 23.6505 104.461 24.1453C104.655 24.6402 104.949 25.0897 105.325 25.4654C105.7 25.8411 106.15 26.135 106.645 26.3286C107.139 26.5221 107.669 26.6111 108.2 26.59H108.57C110.47 26.59 111 24.28 112.03 23.99C112.32 25.21 113.96 26.15 115.47 26.14C115.8 24.74 115.85 23.41 116.24 21.98C116.585 20.7904 116.999 19.6217 117.48 18.48C118 17.17 119.92 12.76 121.29 12.65C121.165 14.0299 120.886 15.3916 120.46 16.71C119.982 18.2879 119.713 19.9219 119.66 21.5699V22.48C119.636 23.0662 119.73 23.6512 119.938 24.2C120.146 24.7487 120.462 25.2497 120.869 25.6729C121.275 26.0961 121.763 26.4328 122.303 26.6625C122.843 26.8923 123.423 27.0105 124.01 27.0099H124.38C125.79 27.0099 127.13 25.1999 128.19 23.0099C129.118 21.0877 129.851 19.0778 130.38 17.0099C130.331 16.8542 130.234 16.718 130.103 16.6209C129.972 16.5239 129.813 16.471 129.65 16.47H129.13C128.671 18.1177 128.034 19.7105 127.23 21.22C126.31 22.95 125.14 24.44 124.05 24.47C123.896 24.1179 123.772 23.7533 123.68 23.38C123.788 21.4342 124.124 19.5078 124.68 17.64C124.93 16.8 126.24 13 126.24 12.64C126.24 11.96 122.77 9.53998 121.7 9.53998C120.63 9.53998 119.38 11.17 118.41 12.97C117.71 14.4826 116.925 15.955 116.06 17.38C116.58 15.55 117.06 13.73 117.64 11.89C116.674 11.1199 115.485 10.6815 114.25 10.64H113.52C113.22 11.91 112.92 12.98 112.63 14.13C112.293 15.4467 112.036 16.7824 111.86 18.13C111.61 20.02 111.93 20.36 111.01 21.85C110.51 22.66 109.95 24.02 108.79 24.04C108.729 24.0293 108.671 24.0063 108.619 23.9726C108.567 23.9389 108.523 23.895 108.488 23.8437C108.453 23.7923 108.43 23.7345 108.418 23.6738C108.406 23.613 108.407 23.5505 108.42 23.49V22.03C108.42 19.8 109.7 17.3 109.7 16.03C109.7 15.21 108.57 14.39 107.87 14.22C107.987 13.9273 108.048 13.6152 108.05 13.3C108.05 11.3 104.05 9.29999 101.88 9.29999C99.05 9.29999 97.02 13.74 96.33 16.3C95.93 17.76 95.76 19.9 95.33 21.69C94.9 23.48 94.1 24.95 92.47 25.03C92.3155 24.6711 92.1918 24.2998 92.1 23.92C92.2013 21.921 92.5369 19.9407 93.1 18.02C93.33 17.16 94.66 13.25 94.66 12.91C94.66 12.22 91.18 9.78999 90.12 9.79999C89.06 9.80999 87.8 11.5 86.83 13.36C86.1275 14.9301 85.3431 16.4621 84.48 17.95C85 16.05 85.48 14.1599 86.06 12.2599C85.0988 11.4808 83.9069 11.0414 82.67 11.0099H81.94C81.64 12.3299 81.34 13.45 81.05 14.64C80.7135 16.0039 80.4564 17.3862 80.28 18.78C80.03 20.78 80.35 21.09 79.43 22.66C78.92 23.52 78.36 24.95 77.21 24.99C76.95 24.99 76.84 24.74 76.84 24.43V22.91C76.84 20.59 78.1 17.91 78.1 16.59C77.9954 16.1449 77.7717 15.7367 77.4529 15.4091C77.134 15.0814 76.732 14.8467 76.29 14.73C76.4064 14.4093 76.4673 14.0711 76.47 13.73C76.47 11.67 72.47 9.59995 70.29 9.63995C68.56 9.63995 67.02 11.49 65.91 13.83C64.8265 16.1068 64.2174 18.5803 64.12 21.1L61.36 23.8C61.74 21.3 62.1233 18.8033 62.51 16.31H62.31V15.52C62.31 13.26 59.9 10.47 57.76 10.52H57.41C55.09 10.58 54.22 15.7699 53.22 17.0699L53.18 16.93ZM8.52 36.19C12.26 35.61 14.97 31.93 16.77 27.19C18.5282 22.4644 19.4257 17.4621 19.42 12.42V11.97C19.4063 10.2226 19.1643 8.48458 18.7 6.79999C18.4098 5.40948 17.742 4.12581 16.77 3.08997C15.61 2.08997 11.44 -0.0300293 9.61 -0.0300293C6.44 -0.0300293 3.29 6.40995 2.33 9.19995C0.734664 14.1624 -0.0586406 19.3476 -0.0200007 24.56C-0.0200007 27.56 0.450004 30.94 2.25 33.49C2.9095 34.5068 3.85782 35.3033 4.97324 35.7772C6.08866 36.2512 7.32028 36.381 8.51 36.15L8.52 36.19Z" fill="white"/>
</g>
<defs>
<clipPath id="clip0_3530_34549">
<rect width="130.38" height="36.28" fill="white"/>
</clipPath>
</defs>
</svg>
